# This file uses centimeters as units for non-parametric coordinates.

mtllib Gravestone 2 test.mtl
g default
v 0.874179 0.543127 0.030951
v 1.149441 0.503909 0.229051
v 0.881539 0.621533 0.036247
v 1.156800 0.582315 0.234348
v 1.080960 0.621533 -0.240849
v 1.356221 0.582315 -0.042748
v 1.073600 0.543127 -0.246145
v 1.348861 0.503909 -0.048044
v 0.881539 0.621533 0.036247
v 1.156800 0.582315 0.234348
v 1.356221 0.582315 -0.042748
v 1.080960 0.621533 -0.240849
v 0.959092 0.653476 0.026506
v 1.148552 0.626482 0.162856
v 1.285811 0.626482 -0.027866
v 1.096352 0.653476 -0.164216
v 0.994707 1.288347 0.073218
v 1.211758 1.257422 0.229425
v 1.369006 1.257422 0.010928
v 1.151956 1.288347 -0.145279
v 1.014494 1.499153 0.087458
v 1.231544 1.468228 0.243665
v 1.388793 1.468228 0.025168
v 1.171742 1.499153 -0.131039
v 1.040079 1.753306 0.105871
v 1.099983 1.788777 0.099238
v 1.253411 1.801393 0.209657
v 1.258615 1.756646 0.263148
v 1.363489 1.801393 0.056703
v 1.415864 1.756646 0.044651
v 1.210061 1.788777 -0.053717
v 1.197327 1.753306 -0.112626
v 1.211758 1.257422 0.229425
v 1.369006 1.257422 0.010928
v 1.388793 1.468228 0.025168
v 1.231544 1.468228 0.243665
v 0.994707 1.288347 0.073218
v 1.151956 1.288347 -0.145279
v 1.014494 1.499153 0.087458
v 1.171742 1.499153 -0.131039
v 1.402202 1.229589 0.367834
v 1.433684 1.248230 0.364348
v 1.566143 1.248230 0.180296
v 1.559451 1.229589 0.149337
v 1.580605 1.428638 0.177633
v 1.449514 1.416879 0.375740
v 1.421989 1.440395 0.382074
v 0.801414 1.338495 -0.093384
v 0.804150 1.314979 -0.065273
v 0.961398 1.314979 -0.283770
v 0.933873 1.338495 -0.277436
v 0.820590 1.516465 -0.066512
v 0.949703 1.507144 -0.266044
v 0.981185 1.525785 -0.269530
v 0.978057 0.991543 0.051380
vt 0.583725 0.519120
vt 0.757529 0.519120
vt 0.583725 0.692925
vt 0.757529 0.692925
vt 0.583725 0.519120
vt 0.757529 0.519120
vt 0.757529 0.692925
vt 0.583725 0.692925
vt 0.772444 0.519120
vt 0.764741 0.519120
vt 0.764741 0.692925
vt 0.772444 0.692925
vt 0.764741 0.519120
vt 0.764741 0.692925
vt 0.772444 0.692925
vt 0.772444 0.519120
vt 0.764741 0.692925
vt 0.764741 0.692925
vt 0.764741 0.519120
vt 0.764741 0.519120
vt 0.772444 0.519120
vt 0.772444 0.519120
vt 0.772444 0.692925
vt 0.772444 0.692925
vt 0.267122 0.564282
vt 0.257134 0.547694
vt 0.363788 0.562855
vt 0.267122 0.662901
vt 0.257134 0.664769
vt 0.272048 0.473531
vt 0.385002 0.481161
vt 0.357488 0.669006
vt 0.370089 0.672399
vt 0.417934 0.570430
vt 0.405334 0.555367
vt 0.513295 0.556031
vt 0.417934 0.669049
vt 0.405334 0.672443
vt 0.391064 0.481161
vt 0.504018 0.473531
vt 0.508300 0.662945
vt 0.518289 0.664813
vt 0.707910 0.001992
vt 0.855401 0.108139
vt 0.748547 0.256612
vt 0.601056 0.150466
vt 0.986105 0.409030
vt 0.838614 0.515176
vt 0.846862 0.474115
vt 0.948378 0.401055
vt 0.731760 0.366703
vt 0.773315 0.371922
vt 0.879251 0.260556
vt 0.874831 0.298863
vt 0.612177 0.432650
vt 0.553012 0.350440
vt 0.634968 0.291457
vt 0.694133 0.373667
vt 0.608623 0.464747
vt 0.524351 0.347651
vt 0.641426 0.263394
vt 0.725698 0.380490
vt 0.196657 0.923802
vt 0.280914 0.806727
vt 0.382959 0.880889
vt 0.298702 0.997965
vt 0.473485 0.867624
vt 0.389228 0.750549
vt 0.491272 0.676386
vt 0.576262 0.785930
vt 0.251072 0.685708
vt 0.166815 0.802783
vt 0.064710 0.728577
vt 0.148967 0.611502
vt 0.105866 0.806727
vt 0.190123 0.923802
vt 0.088018 0.998008
vt 0.001968 0.889227
vt 0.960755 0.659245
vt 0.977623 0.669233
vt 0.986105 0.759598
vt 0.971357 0.772199
vt 0.869312 0.787113
vt 0.858710 0.674158
vt 0.838378 0.809576
vt 0.825778 0.824324
vt 0.735412 0.815842
vt 0.725424 0.798973
vt 0.739694 0.696869
vt 0.852648 0.707471
vt 0.012407 0.453017
vt 0.129483 0.453017
vt 0.119044 0.607558
vt 0.001968 0.607558
vt 0.213182 0.469588
vt 0.203316 0.605768
vt 0.096107 0.469588
vt 0.086241 0.605768
vt 0.137113 0.340063
vt 0.220812 0.356633
vt 0.157899 0.001992
vt 0.230959 0.016456
vt 0.055707 0.001992
vt 0.020038 0.340063
vt 0.483419 0.110976
vt 0.462405 0.004830
vt 0.504417 0.001992
vt 0.525431 0.108139
vt 0.483419 0.259450
vt 0.525431 0.256612
vt 0.594756 0.004830
vt 0.573742 0.110976
vt 0.531730 0.108139
vt 0.552744 0.001992
vt 0.531730 0.256612
vt 0.573742 0.259450
vt 0.339290 0.016456
vt 0.412349 0.001992
vt 0.448018 0.340063
vt 0.364319 0.356633
vt 0.352618 0.197599
vt 0.455649 0.453017
vt 0.371949 0.469588
vt 0.237097 0.016456
vt 0.247244 0.356633
vt 0.780147 0.519120
vt 0.897222 0.519120
vt 0.907088 0.655301
vt 0.790013 0.655301
vn -0.584135 -0.000000 0.811656
vn -0.584135 -0.000000 0.811657
vn -0.584135 -0.000000 0.811656
vn -0.584135 -0.000000 0.811656
vn 0.584135 -0.000000 -0.811656
vn 0.584135 -0.000000 -0.811656
vn 0.584135 -0.000000 -0.811657
vn 0.584135 -0.000000 -0.811657
vn -0.093240 -0.993380 -0.067103
vn -0.093240 -0.993380 -0.067103
vn -0.093240 -0.993380 -0.067103
vn -0.093240 -0.993380 -0.067103
vn 0.806284 -0.114874 0.580268
vn 0.806284 -0.114874 0.580268
vn 0.806284 -0.114874 0.580268
vn 0.806284 -0.114874 0.580268
vn -0.806283 0.114876 -0.580268
vn -0.806283 0.114876 -0.580268
vn -0.806283 0.114876 -0.580268
vn -0.806283 0.114876 -0.580268
vn 0.000000 0.000000 0.000000
vn 0.000000 0.000000 0.000000
vn 0.000000 0.000000 0.000000
vn 0.000000 0.000000 0.000000
vn 0.000000 0.000000 0.000000
vn 0.000000 0.000000 0.000000
vn 0.000000 0.000000 0.000000
vn 0.000000 0.000000 0.000000
vn 0.000000 0.000000 0.000000
vn 0.000000 0.000000 0.000000
vn 0.000000 0.000000 0.000000
vn 0.000000 0.000000 0.000000
vn 0.000000 0.000000 0.000000
vn 0.000000 0.000000 0.000000
vn 0.000000 0.000000 0.000000
vn 0.000000 0.000000 0.000000
vn -0.265637 0.806172 0.528701
vn -0.265637 0.806172 0.528701
vn -0.265637 0.806172 0.528701
vn -0.265637 0.806172 0.528701
vn 0.546773 0.739050 0.393503
vn 0.546773 0.739050 0.393503
vn 0.546773 0.739050 0.393503
vn 0.546773 0.739050 0.393503
vn 0.416972 0.806172 -0.419786
vn 0.416972 0.806172 -0.419786
vn 0.416972 0.806172 -0.419786
vn 0.416972 0.806172 -0.419786
vn -0.395437 0.873292 -0.284588
vn -0.395437 0.873292 -0.284588
vn -0.395437 0.873292 -0.284588
vn -0.395437 0.873292 -0.284588
vn -0.586428 -0.026668 0.809563
vn -0.586428 -0.026668 0.809563
vn -0.585860 -0.019585 0.810176
vn -0.585860 -0.019585 0.810176
vn -0.586427 -0.026668 0.809563
vn 0.803490 -0.141502 0.578257
vn 0.803490 -0.141502 0.578257
vn 0.803490 -0.141502 0.578257
vn 0.803490 -0.141502 0.578257
vn 0.581421 -0.026668 -0.813165
vn 0.581421 -0.026668 -0.813165
vn 0.582183 -0.019585 -0.812822
vn 0.582183 -0.019585 -0.812822
vn -0.808496 0.088166 -0.581860
vn -0.808496 0.088166 -0.581860
vn -0.808496 0.088166 -0.581860
vn -0.808496 0.088166 -0.581860
vn -0.808496 0.088166 -0.581860
vn -0.584135 -0.000000 0.811657
vn -0.584135 -0.000000 0.811657
vn 0.584135 0.000000 -0.811657
vn 0.584135 0.000000 -0.811657
vn -0.504204 0.783650 -0.362866
vn -0.504204 0.783650 -0.362866
vn -0.504204 0.783649 -0.362866
vn -0.504204 0.783649 -0.362866
vn -0.430792 0.710653 0.556230
vn -0.430792 0.710652 0.556230
vn -0.430792 0.710653 0.556230
vn -0.430792 0.710653 0.556230
vn 0.636058 0.621198 0.457759
vn 0.636058 0.621198 0.457759
vn 0.636058 0.621198 0.457759
vn 0.636058 0.621198 0.457759
vn 0.390629 0.710652 -0.585134
vn 0.390629 0.710652 -0.585134
vn 0.390629 0.710652 -0.585134
vn 0.390629 0.710652 -0.585134
vn -0.054047 0.997781 -0.038897
vn -0.054047 0.997781 -0.038897
vn -0.054047 0.997781 -0.038897
vn -0.054047 0.997781 -0.038897
vn -0.584135 0.000000 0.811656
vn -0.584135 0.000000 0.811656
vn 0.806283 -0.114875 0.580268
vn 0.806283 -0.114875 0.580268
vn 0.806283 -0.114875 0.580268
vn 0.806283 -0.114875 0.580268
vn 0.584135 -0.000000 -0.811657
vn 0.584135 -0.000000 -0.811657
vn -0.805485 0.123086 -0.579693
vn -0.805485 0.123086 -0.579693
vn -0.805485 0.123086 -0.579693
vn -0.805485 0.123086 -0.579693
vn 0.000000 0.000000 0.000000
vn 0.000000 0.000000 0.000000
vn 0.000000 0.000000 0.000000
vn 0.000000 0.000000 0.000000
vn 0.000000 0.000000 0.000000
vn 0.000000 0.000000 0.000000
vn 0.000000 0.000000 0.000000
vn 0.000000 0.000000 0.000000
vn 0.000000 0.000000 0.000000
vn 0.000000 0.000000 0.000000
vn 0.000000 0.000000 0.000000
vn 0.000000 0.000000 0.000000
vn 0.000000 0.000000 0.000000
vn 0.000000 0.000000 0.000000
vn 0.000000 0.000000 0.000000
vn 0.000000 0.000000 0.000000
vn 0.000000 0.000000 0.000000
vn 0.000000 0.000000 0.000000
vn 0.000000 0.000000 0.000000
vn 0.000000 0.000000 0.000000
vn 0.000000 0.000000 0.000000
vn 0.000000 0.000000 0.000000
vn 0.000000 0.000000 0.000000
vn 0.000000 0.000000 0.000000
vn 0.000000 0.000000 0.000000
vn 0.000000 0.000000 0.000000
vn 0.000000 0.000000 0.000000
vn 0.000000 0.000000 0.000000
vn 0.000000 0.000000 0.000000
vn 0.000000 0.000000 0.000000
vn 0.000000 0.000000 0.000000
vn 0.000000 0.000000 0.000000
vn 0.157082 -0.081230 0.984239
vn 0.157082 -0.081230 0.984239
vn 0.157082 -0.081230 0.984239
vn 0.157082 -0.081230 0.984239
vn 0.504198 -0.783654 0.362864
vn 0.504198 -0.783655 0.362864
vn 0.504198 -0.783654 0.362864
vn 0.504198 -0.783655 0.362864
vn 0.983175 -0.081228 -0.163615
vn 0.983175 -0.081228 -0.163615
vn 0.983175 -0.081228 -0.163615
vn 0.636065 0.621185 0.457767
vn 0.636065 0.621185 0.457767
vn 0.636065 0.621185 0.457767
vn -0.983175 0.081229 0.163615
vn -0.983175 0.081229 0.163615
vn -0.983175 0.081229 0.163615
vn -0.636062 -0.621193 -0.457760
vn -0.636062 -0.621193 -0.457760
vn -0.636062 -0.621193 -0.457760
vn -0.636062 -0.621193 -0.457760
vn -0.157084 0.081229 -0.984239
vn -0.157084 0.081229 -0.984239
vn -0.157084 0.081229 -0.984239
vn -0.157084 0.081229 -0.984239
vn -0.504205 0.783648 -0.362869
vn -0.504205 0.783648 -0.362869
vn -0.504205 0.783648 -0.362869
vn 0.821441 -0.085385 0.563866
vn 0.821441 -0.085385 0.563866
vn 0.821441 -0.085385 0.563866
vn 0.821441 -0.085385 0.563866
vn -0.815919 0.144208 -0.559893
vn -0.815919 0.144208 -0.559893
vn -0.815919 0.144208 -0.559893
vn -0.815919 0.144208 -0.559893
vn -0.095296 -0.993084 -0.068582
vn -0.095295 -0.993084 -0.068582
vn -0.095296 -0.993084 -0.068582
vn -0.095296 -0.993084 -0.068582
vn 0.607831 0.021663 -0.793771
vn 0.607831 0.021663 -0.793771
vn 0.607831 0.021663 -0.793771
vn 0.607831 0.021663 -0.793771
vn 0.124701 0.990023 0.065607
vn 0.124701 0.990023 0.065607
vn 0.124701 0.990023 0.065607
vn 0.124701 0.990023 0.065607
vn -0.587854 0.000531 0.808967
vn -0.587854 0.000531 0.808967
vn -0.587854 0.000531 0.808967
vn -0.587854 0.000531 0.808967
vn -0.091181 -0.993670 -0.065622
vn -0.091181 -0.993670 -0.065622
vn -0.091181 -0.993670 -0.065622
vn -0.091181 -0.993670 -0.065622
vn -0.603183 0.027865 0.797116
vn -0.603183 0.027865 0.797116
vn -0.603183 0.027865 0.797116
vn -0.603183 0.027865 0.797116
vn 0.061684 0.995740 0.068529
vn 0.061684 0.995740 0.068529
vn 0.061684 0.995740 0.068529
vn 0.061684 0.995740 0.068529
vn 0.587854 -0.000531 -0.808967
vn 0.587854 -0.000531 -0.808967
vn 0.587854 -0.000531 -0.808967
vn 0.587854 -0.000531 -0.808967
s off
g Cross_1
usemtl lambert2SG
f 1/105/1 2/106/2 4/107/3 3/108/4
f 5/111/5 6/112/6 8/113/7 7/114/8
usemtl surfacematerial1SG
f 7/43/9 8/44/10 2/45/11 1/46/12
usemtl lambert2SG
f 2/115/13 8/113/14 6/112/15 4/116/16
f 7/109/17 1/105/18 3/108/19 5/110/20
usemtl surfacematerial1SG
f 3/1/21 4/2/22 10/6/23 9/5/24
f 4/2/25 6/4/26 11/7/27 10/6/28
f 6/4/29 5/3/30 12/8/31 11/7/32
f 5/3/33 3/1/34 9/5/35 12/8/36
usemtl lambert2SG
f 9/51/37 10/53/38 14/54/39 13/52/40
f 10/53/41 11/47/42 15/50/43 14/54/44
f 11/47/45 12/48/46 16/49/47 15/50/48
f 12/48/49 9/51/50 13/52/51 16/49/52
s 1
usemtl lambert5SG
f 13/117/53 14/118/54 18/119/55 17/120/56 55/121/57
s off
f 14/103/58 15/101/59 19/99/60 18/104/61
s 2
f 15/101/62 16/102/63 20/100/64 19/99/65
s off
f 16/124/66 13/117/67 55/121/68 17/120/69 20/125/70
s 1
f 17/120/56 18/119/55 22/122/71 21/123/72
s 2
f 19/99/65 20/100/64 24/95/73 23/92/74
s off
f 25/59/75 26/55/76 31/58/77 32/62/78
f 26/55/79 25/59/80 28/60/81 27/56/82
f 27/56/83 28/60/84 30/61/85 29/57/86
f 29/57/87 30/61/88 32/62/89 31/58/90
f 26/55/91 27/56/92 29/57/93 31/58/94
s 1
f 21/97/72 22/91/71 28/94/95 25/98/96
s off
f 22/91/97 23/92/98 30/93/99 28/94/100
s 2
f 23/92/74 24/95/73 32/96/101 30/93/102
s off
f 24/126/103 21/127/104 25/128/105 32/129/106
usemtl surfacematerial1SG
f 18/10/107 19/11/108 34/17/109 33/20/110
f 19/11/111 23/14/112 35/18/113 34/17/114
f 23/14/115 22/13/116 36/19/117 35/18/118
f 22/13/119 18/10/120 33/20/121 36/19/122
f 20/12/123 17/9/124 37/21/125 38/24/126
f 17/9/127 21/16/128 39/22/129 37/21/130
f 21/16/131 24/15/132 40/23/133 39/22/134
f 24/15/135 20/12/136 38/24/137 40/23/138
usemtl lambert5SG
f 41/79/139 42/80/140 46/81/141 47/82/142
f 42/28/143 41/29/144 44/26/145 43/25/146
f 43/25/147 44/26/148 45/27/149
f 45/27/150 47/33/151 46/32/152
f 48/34/153 49/35/154 52/36/155
f 49/35/156 48/34/157 51/37/158 50/38/159
f 50/85/160 51/86/161 53/87/162 54/88/163
f 52/36/164 54/42/165 53/41/166
f 42/28/167 43/25/168 45/27/169 46/32/170
f 51/37/171 48/34/172 52/36/173 53/41/174
f 33/63/175 34/64/176 44/65/177 41/66/178
f 34/30/179 35/31/180 45/27/181 44/26/182
f 35/67/183 36/68/184 47/69/185 45/70/186
f 36/83/187 33/84/188 41/79/189 47/82/190
f 38/71/191 37/72/192 49/73/193 50/74/194
f 37/39/195 39/40/196 52/36/197 49/35/198
f 39/75/199 40/76/200 54/77/201 52/78/202
f 40/89/203 38/90/204 50/85/205 54/88/206
